<svg xmlns="http://www.w3.org/2000/svg" width="1200" height="300" viewBox="0 0 1200 300">
  <defs>
    <linearGradient id="hakkimizdaGrad" x1="0%" y1="0%" x2="100%" y2="100%">
      <stop offset="0%" style="stop-color:#2c3e50;stop-opacity:1" />
      <stop offset="50%" style="stop-color:#34495e;stop-opacity:1" />
      <stop offset="100%" style="stop-color:#2c3e50;stop-opacity:1" />
    </linearGradient>
  </defs>
  <rect width="1200" height="300" fill="url(#hakkimizdaGrad)"/>
  <g opacity="0.1">
    <rect x="100" y="50" width="200" height="200" fill="none" stroke="#ff8c42" stroke-width="3" rx="10"/>
    <rect x="350" y="80" width="150" height="150" fill="none" stroke="#ff8c42" stroke-width="3" rx="10"/>
    <rect x="550" y="60" width="180" height="180" fill="none" stroke="#ff8c42" stroke-width="3" rx="10"/>
    <rect x="780" y="90" width="140" height="140" fill="none" stroke="#ff8c42" stroke-width="3" rx="10"/>
    <rect x="970" y="70" width="160" height="160" fill="none" stroke="#ff8c42" stroke-width="3" rx="10"/>
  </g>
  <g transform="translate(500, 100)">
    <circle cx="0" cy="0" r="50" fill="#ff8c42" opacity="0.3"/>
    <circle cx="0" cy="-15" r="20" fill="#ffffff"/>
    <path d="M -15,10 Q 0,20 15,10" fill="none" stroke="#ffffff" stroke-width="3" stroke-linecap="round"/>
    <circle cx="-8" cy="-18" r="3" fill="#2c3e50"/>
    <circle cx="8" cy="-18" r="3" fill="#2c3e50"/>
    <path d="M -25,20 L -15,60 L 15,60 L 25,20" fill="#ffffff" stroke="#ffffff" stroke-width="2"/>
  </g>
  <text x="600" y="220" font-family="Arial, sans-serif" font-size="32" font-weight="bold" fill="#ffffff" text-anchor="middle" opacity="0.8">
    GÜVEN • DENEYİM • KALİTE
  </text>
</svg>





