<svg xmlns="http://www.w3.org/2000/svg" width="1200" height="300" viewBox="0 0 1200 300">
  <defs>
    <linearGradient id="bisikletGrad" x1="0%" y1="0%" x2="100%" y2="100%">
      <stop offset="0%" style="stop-color:#27ae60;stop-opacity:1" />
      <stop offset="50%" style="stop-color:#229954;stop-opacity:1" />
      <stop offset="100%" style="stop-color:#27ae60;stop-opacity:1" />
    </linearGradient>
  </defs>
  <rect width="1200" height="300" fill="url(#bisikletGrad)"/>
  <g opacity="0.1">
    <path d="M0,150 Q300,50 600,150 T1200,150" fill="none" stroke="#ffffff" stroke-width="3"/>
    <path d="M0,180 Q300,80 600,180 T1200,180" fill="none" stroke="#ffffff" stroke-width="3"/>
    <path d="M0,210 Q300,110 600,210 T1200,210" fill="none" stroke="#ffffff" stroke-width="3"/>
  </g>
  <g transform="translate(300, 120)">
    <circle cx="0" cy="60" r="40" fill="none" stroke="#2c3e50" stroke-width="6"/>
    <circle cx="200" cy="60" r="40" fill="none" stroke="#2c3e50" stroke-width="6"/>
    <line x1="0" y1="60" x2="100" y2="20" stroke="#ff8c42" stroke-width="8" stroke-linecap="round"/>
    <line x1="100" y1="20" x2="200" y2="60" stroke="#ff8c42" stroke-width="8" stroke-linecap="round"/>
    <line x1="100" y1="20" x2="100" y2="60" stroke="#ff8c42" stroke-width="8" stroke-linecap="round"/>
    <ellipse cx="70" cy="55" rx="20" ry="8" fill="#2c3e50"/>
  </g>
  <g transform="translate(650, 120)">
    <circle cx="0" cy="60" r="40" fill="none" stroke="#2c3e50" stroke-width="6"/>
    <circle cx="200" cy="60" r="40" fill="none" stroke="#2c3e50" stroke-width="6"/>
    <line x1="0" y1="60" x2="100" y2="20" stroke="#ff8c42" stroke-width="8" stroke-linecap="round"/>
    <line x1="100" y1="20" x2="200" y2="60" stroke="#ff8c42" stroke-width="8" stroke-linecap="round"/>
    <line x1="100" y1="20" x2="100" y2="60" stroke="#ff8c42" stroke-width="8" stroke-linecap="round"/>
  </g>
</svg>





