<svg xmlns="http://www.w3.org/2000/svg" width="1200" height="300" viewBox="0 0 1200 300">
  <defs>
    <linearGradient id="cilingirGrad" x1="0%" y1="0%" x2="100%" y2="100%">
      <stop offset="0%" style="stop-color:#1a2847;stop-opacity:1" />
      <stop offset="50%" style="stop-color:#2c3e50;stop-opacity:1" />
      <stop offset="100%" style="stop-color:#1a2847;stop-opacity:1" />
    </linearGradient>
  </defs>
  <rect width="1200" height="300" fill="url(#cilingirGrad)"/>
  <g opacity="0.1">
    <circle cx="200" cy="150" r="80" fill="none" stroke="#ff8c42" stroke-width="3"/>
    <circle cx="400" cy="100" r="60" fill="none" stroke="#ff8c42" stroke-width="3"/>
    <circle cx="600" cy="180" r="70" fill="none" stroke="#ff8c42" stroke-width="3"/>
    <circle cx="800" cy="120" r="50" fill="none" stroke="#ff8c42" stroke-width="3"/>
    <circle cx="1000" cy="160" r="65" fill="none" stroke="#ff8c42" stroke-width="3"/>
  </g>
  <g transform="translate(400, 100)">
    <rect x="0" y="0" width="80" height="120" fill="#34495e" rx="3"/>
    <rect x="5" y="5" width="70" height="110" fill="#8b7355" rx="2"/>
    <circle cx="60" cy="70" r="5" fill="#FFD700"/>
    <rect x="62" y="68" width="10" height="3" fill="#FFD700" rx="1"/>
  </g>
  <g transform="translate(550, 120)">
    <circle cx="0" cy="0" r="35" fill="none" stroke="#ff8c42" stroke-width="6"/>
    <rect x="20" y="-8" width="70" height="16" fill="#ff8c42" rx="3"/>
    <rect x="75" y="-12" width="10" height="24" fill="#ff8c42"/>
    <rect x="85" y="-12" width="10" height="24" fill="#ff8c42"/>
    <rect x="95" y="-8" width="10" height="16" fill="#ff8c42"/>
  </g>
  <g transform="translate(750, 130)">
    <rect x="0" y="0" width="70" height="90" fill="#e74c3c" rx="5"/>
    <rect x="5" y="5" width="60" height="30" fill="#34495e" rx="2"/>
    <circle cx="20" cy="95" r="15" fill="#2c3e50"/>
    <circle cx="50" cy="95" r="15" fill="#2c3e50"/>
  </g>
</svg>


