<svg xmlns="http://www.w3.org/2000/svg" width="1200" height="300" viewBox="0 0 1200 300">
  <defs>
    <linearGradient id="iletisimGrad" x1="0%" y1="0%" x2="100%" y2="100%">
      <stop offset="0%" style="stop-color:#1a2847;stop-opacity:1" />
      <stop offset="100%" style="stop-color:#27ae60;stop-opacity:1" />
    </linearGradient>
  </defs>
  <rect width="1200" height="300" fill="url(#iletisimGrad)"/>
  <g opacity="0.15">
    <circle cx="150" cy="150" r="100" fill="none" stroke="#ffffff" stroke-width="2"/>
    <circle cx="150" cy="150" r="120" fill="none" stroke="#ffffff" stroke-width="2"/>
    <circle cx="150" cy="150" r="140" fill="none" stroke="#ffffff" stroke-width="2"/>
    <circle cx="1050" cy="150" r="100" fill="none" stroke="#ffffff" stroke-width="2"/>
    <circle cx="1050" cy="150" r="120" fill="none" stroke="#ffffff" stroke-width="2"/>
    <circle cx="1050" cy="150" r="140" fill="none" stroke="#ffffff" stroke-width="2"/>
  </g>
  <g transform="translate(450, 100)">
    <rect x="0" y="0" width="80" height="100" fill="#ffffff" rx="8"/>
    <rect x="10" y="10" width="60" height="70" fill="#1a2847" rx="5"/>
    <circle cx="40" cy="90" r="6" fill="#1a2847"/>
    <line x1="20" y1="20" x2="60" y2="20" stroke="#ff8c42" stroke-width="2"/>
    <line x1="20" y1="30" x2="60" y2="30" stroke="#27ae60" stroke-width="2"/>
    <line x1="20" y1="40" x2="50" y2="40" stroke="#ff8c42" stroke-width="2"/>
  </g>
  <g transform="translate(600, 120)">
    <path d="M 0,0 L 60,0 L 30,30 Z" fill="#25D366"/>
    <circle cx="30" cy="10" r="15" fill="#ffffff"/>
    <path d="M 22,8 Q 30,12 38,8" fill="none" stroke="#25D366" stroke-width="2"/>
  </g>
  <g transform="translate(700, 110)">
    <rect x="0" y="15" width="60" height="40" fill="#ffffff" rx="3"/>
    <path d="M 0,15 L 30,35 L 60,15" fill="none" stroke="#ff8c42" stroke-width="3"/>
    <circle cx="30" cy="5" r="12" fill="#ffffff"/>
    <circle cx="30" cy="5" r="8" fill="none" stroke="#ff8c42" stroke-width="2"/>
  </g>
</svg>





